<?xml version="1.0" encoding="utf-8"?>
<!-- Generator: Adobe Illustrator 17.1.0, SVG Export Plug-In . SVG Version: 6.00 Build 0)  -->
<!DOCTYPE svg PUBLIC "-//W3C//DTD SVG 1.1//EN" "http://www.w3.org/Graphics/SVG/1.1/DTD/svg11.dtd">
<svg version="1.1"
	 id="svg9468" xmlns:dc="http://purl.org/dc/elements/1.1/" xmlns:cc="http://creativecommons.org/ns#" xmlns:rdf="http://www.w3.org/1999/02/22-rdf-syntax-ns#" xmlns:svg="http://www.w3.org/2000/svg" xmlns:sodipodi="http://sodipodi.sourceforge.net/DTD/sodipodi-0.dtd" xmlns:inkscape="http://www.inkscape.org/namespaces/inkscape" inkscape:export-filename="/Users/saman/Desktop/try-1.png" inkscape:export-ydpi="90" sodipodi:docname="bat.svg" inkscape:export-xdpi="90" inkscape:version="0.91 r13725"
	 xmlns="http://www.w3.org/2000/svg" xmlns:xlink="http://www.w3.org/1999/xlink" x="0px" y="0px" viewBox="0 0 4500 340"
	 enable-background="new 0 0 4500 340" xml:space="preserve">
<sodipodi:namedview  id="namedview9470" fit-margin-left="0" fit-margin-top="0" showguides="true" inkscape:cy="-64.58921" inkscape:cx="740.5319" inkscape:zoom="0.35355339" showgrid="true" guidetolerance="10" gridtolerance="10" objecttolerance="10" borderopacity="1" pagecolor="#ffffff" bordercolor="#666666" inkscape:pageshadow="2" inkscape:window-width="1280" inkscape:window-height="755" inkscape:window-x="0" inkscape:window-y="0" inkscape:window-maximized="1" inkscape:current-layer="svg9468" inkscape:snap-bbox="true" inkscape:bbox-paths="true" inkscape:bbox-nodes="true" inkscape:object-paths="true" inkscape:object-nodes="true" inkscape:guide-bbox="true" inkscape:snap-nodes="false" fit-margin-right="0" fit-margin-bottom="0" inkscape:pageopacity="0">
	
		<inkscape:grid  color="#ff0000" type="xygrid" id="grid9478" originy="-910" originx="500" empspacing="1" spacingy="250" spacingx="250" empopacity="0.25098039" empcolor="#ff0000" opacity="0.1254902">
		</inkscape:grid>
	<sodipodi:guide  id="guide9882" orientation="0,1" position="2140,150"></sodipodi:guide>
	
		<inkscape:grid  color="#0000ff" type="xygrid" id="grid9890" originy="-910" originx="500" empopacity="0.1254902" empcolor="#0000ff" opacity="0.0627451">
		</inkscape:grid>
	<sodipodi:guide  id="guide5454" orientation="0,1" position="1860,120"></sodipodi:guide>
	<sodipodi:guide  id="guide5456" orientation="0,1" position="1865,180"></sodipodi:guide>
	<sodipodi:guide  id="guide5480" orientation="0,1" position="2145,155"></sodipodi:guide>
</sodipodi:namedview>
<path id="path5671" sodipodi:nodetypes="cccccc" inkscape:connector-curvature="0" stroke="#000000" stroke-miterlimit="10" d="
	M4051.9,65c13.1,25,8.6,62.3,13.1,77.1c20.8,7.1,21.7,39.7,35.1,55.2c-1.1-3.4-1.9-10-3.1-13.5c-6.7-19.9,2-51.8,7.7-73.9
	C4090,95,4070,80,4051.9,65z"/>
<g id="g10366" transform="translate(500,385)">
	<path id="path9898" sodipodi:nodetypes="ccccc" inkscape:connector-curvature="0" stroke="#000000" stroke-miterlimit="10" d="
		M2249.2-242.9c-26.1,14.1-28.4,25.1-36.8,36.9c-24.3,0.2-44.6,3.7-62.8,13.6c14-18.4,29.6-33.1,28.4-58
		C2203.4-258.7,2225.9-259,2249.2-242.9z"/>
	<path id="path9900" sodipodi:nodetypes="ccccc" inkscape:connector-curvature="0" stroke="#000000" stroke-miterlimit="10" d="
		M2001.9-242.6c26.1,14.1,28.4,25.1,36.8,36.9c24.3,0.2,44.6,3.7,62.8,13.6c-14-18.4-29.6-33.1-28.4-58
		C2047.7-258.4,2025.2-258.7,2001.9-242.6L2001.9-242.6z"/>
	<g id="g10312" transform="translate(-0.4595,-730)">
	</g>
	<circle id="circle9906" stroke="#000000" stroke-miterlimit="10" cx="2125" cy="-195" r="30"/>
</g>
<g id="g10376" transform="translate(500,395)">
	<path id="path5490" sodipodi:nodetypes="cccccc" inkscape:connector-curvature="0" stroke="#000000" stroke-miterlimit="10" d="
		M2268.5-275.1c21.5,20.4,20.9,31.6,26,45.2c23.4,6.5,36.2,10.7,51.3,24.9c-0.5-1.3,4-2.3,3.4-3.7c-8.4-16.3-17.1-33-10-55.3
		C2316.9-278.5,2295.2-284.6,2268.5-275.1z"/>
	<path id="path9924" sodipodi:nodetypes="cccccc" inkscape:connector-curvature="0" stroke="#000000" stroke-miterlimit="10" d="
		M2482.3-275.1c-21.5,20.4-20.9,31.6-26,45.2c-23.4,6.5-36.2,10.7-51.3,24.9c0.5-1.3-4-2.3-3.4-3.7c8.4-16.3,17.1-33,10-55.3
		C2433.9-278.5,2455.6-284.6,2482.3-275.1z"/>
	<g id="g10316" transform="translate(2.0405,-730)">
	</g>
	<circle id="circle9932" stroke="#000000" stroke-miterlimit="10" cx="2375" cy="-205" r="30"/>
</g>
<g id="g10356" transform="translate(500,375)">
	<path id="path9858" sodipodi:nodetypes="ccccc" inkscape:connector-curvature="0" stroke="#000000" stroke-miterlimit="10" d="
		M2000-200.4c-28.8,6.9-33.9,16.9-45.1,26.1c-23.5-6.1-44.8-12.1-65-7.3c18.3-14.1,37.9-20.2,43.2-44.6
		C1959.8-227.5,1981.6-221.9,2000-200.4L2000-200.4z"/>
	<path id="path9860" sodipodi:nodetypes="ccccc" inkscape:connector-curvature="0" stroke="#000000" stroke-miterlimit="10" d="
		M1750-200.4c28.8,6.9,33.9,16.9,45.1,26.1c23.5-6.1,44.8-12.1,65-7.3c-18.3-14.1-37.9-20.2-43.2-44.6
		C1790.2-227.5,1768.4-221.9,1750-200.4L1750-200.4z"/>
	<g id="g10308" transform="translate(2.0405,-730)">
	</g>
	<circle id="circle9866" stroke="#000000" stroke-miterlimit="10" cx="1875" cy="-185" r="30"/>
</g>
<g id="g10386" transform="translate(500,395)">
	<path id="path9950" sodipodi:nodetypes="ccccc" inkscape:connector-curvature="0" stroke="#000000" stroke-miterlimit="10" d="
		M2723.1-295.1c-19.1,20.4-18.6,51.6-23.1,65.2c-20.8,6.5-36.7,18-50.1,32.3c7.8-21.4,17.1-42.5,10.4-66.3
		C2680.1-278.5,2699.4-304.6,2723.1-295.1L2723.1-295.1z"/>
	<path id="path9952" sodipodi:nodetypes="ccccc" inkscape:connector-curvature="0" stroke="#000000" stroke-miterlimit="10" d="
		M2526.4-294.8c19.5,20.4,19,51.6,23.6,65.2c21.2,6.5,37.6,18,51.2,32.3c-8-21.4-17.5-42.5-10.6-66.3
		C2570.3-278.2,2550.6-304.3,2526.4-294.8L2526.4-294.8z"/>
	<g id="g10320" transform="translate(2.0405,-730)">
	</g>
	<circle id="circle9958" stroke="#000000" stroke-miterlimit="10" cx="2625" cy="-205" r="30"/>
</g>
<g id="g10406" transform="translate(500,365)">
	<path id="path9579" sodipodi:nodetypes="ccccc" inkscape:connector-curvature="0" stroke="#000000" stroke-miterlimit="10" d="
		M1750-175c-27.5,0.1-34.8,8.6-47.2,15c-19.2-11.2-38.5-15.1-57.8-15c20.1-9.5,41.2-17.6,52.5-40C1721.6-210.3,1739.5-200,1750-175z
		"/>
	<path id="path9852" sodipodi:nodetypes="ccccc" inkscape:connector-curvature="0" stroke="#000000" stroke-miterlimit="10" d="
		M1500-175c27.5,0.1,34.8,8.6,47.2,15c19.2-11.2,38.5-15.1,57.8-15c-20.1-9.5-41.2-17.6-52.5-40C1528.4-210.3,1510.5-200,1500-175z"
		/>
	<g id="g10304" transform="translate(2.0405,-730)">
	</g>
	<circle id="circle9565" stroke="#000000" stroke-miterlimit="10" cx="1625" cy="-175" r="30"/>
</g>
<g id="g10396" transform="translate(500,405)">
	<path id="path9976" sodipodi:nodetypes="cccccc" inkscape:connector-curvature="0" stroke="#000000" stroke-miterlimit="10" d="
		M2973.1-315.1c-19.1,20.4-23.6,61.6-28.1,75.2c-20.8,6.5-31.7,18-45.1,32.3c1.1-3.1,3.9-9.2,5.1-12.3c6.7-18.2,11-33.7,5.3-53.9
		C2930.1-288.5,2950-310,2973.1-315.1z"/>
	<path id="path9978" sodipodi:nodetypes="cccccc" inkscape:connector-curvature="0" stroke="#000000" stroke-miterlimit="10" d="
		M2776.4-314.8c19.5,20.4,24,61.6,28.6,75.2c21.2,6.5,32.6,18,46.2,32.3c-2.2-6-4.1-6.6-6.2-12.6c-5.3-15.5-9.4-36.5-4.4-53.6
		C2820.3-288.2,2800-310,2776.4-314.8z"/>
	<g id="g10324" transform="translate(2.0405,-730)">
	</g>
	<circle id="circle9984" stroke="#000000" stroke-miterlimit="10" cx="2875" cy="-215" r="30"/>
</g>
<g id="g5400" transform="translate(750,20)">
	<path id="path5476" sodipodi:nodetypes="cccccc" inkscape:connector-curvature="0" stroke="#000000" stroke-miterlimit="10" d="
		M999.7,193.2c27.7-7,37.3-0.6,51.6,2.3c15.5-15,30.1-20.4,48.4-25.4c1-0.3-1-4.7,0-5c-22.8-4-40.5-5.4-58-24.1
		C1018.8,151.7,1003.5,166.3,999.7,193.2L999.7,193.2z"/>
	<path id="path10418" sodipodi:nodetypes="cccccc" inkscape:connector-curvature="0" stroke="#000000" stroke-miterlimit="10" d="
		M1250,193.2c-27.7-7-37.3-0.6-51.6,2.3c-15.5-15-30.1-20.4-48.4-25.4c-1-0.3,1-4.7,0-5c22.8-4,40.5-5.4,58-24.1
		C1230.9,151.7,1246.2,166.3,1250,193.2L1250,193.2z"/>
	<g id="g10422" transform="translate(-497.9595,-385)">
	</g>
	<circle id="circle10428" stroke="#000000" stroke-miterlimit="10" cx="1125" cy="170" r="30"/>
</g>
<g id="g5410" transform="translate(750,30)">
	<g id="g10543" transform="matrix(1.0228935,0,0,1.0749569,-275.75517,424.52291)">
		<path id="path10454" sodipodi:nodetypes="ccsccc" inkscape:connector-curvature="0" stroke="#000000" stroke-miterlimit="10" d="
			M1236.8-199.6c-23.9-13.7-34.4-9.9-48.4-10.6c-9.6-16.7-25.5-26.9-39.5-35.7c-2.2-1.4-0.8-3.5-3.1-4.8c22.2,1.8,44.5,4,65.5-9.7
			C1229.8-244.3,1240.2-226.5,1236.8-199.6L1236.8-199.6z"/>
		<path id="path10456" sodipodi:nodetypes="ccsccc" inkscape:connector-curvature="0" stroke="#000000" stroke-miterlimit="10" d="
			M1013.2-199.6c23.9-13.7,34.4-9.9,48.4-10.6c8.5-14.9,27-27.2,39.1-35.5c3.6-2.5-0.4-2.8,3.4-5c-22.2,1.8-44.5,4-65.5-9.7
			C1020.2-244.3,1009.8-226.5,1013.2-199.6L1013.2-199.6z"/>
	</g>
	<g id="g10458" transform="translate(-747.9595,-395)">
	</g>
	<circle id="circle10464" stroke="#000000" stroke-miterlimit="10" cx="875" cy="160" r="30"/>
</g>
<g id="g5421" transform="translate(750,40)">
	<g id="g10547" transform="matrix(1.0228935,0,0,1.0749569,-525.75517,414.52291)">
		<path id="path10549" sodipodi:nodetypes="cccccc" inkscape:connector-curvature="0" stroke="#000000" stroke-miterlimit="10" d="
			M1222.3-180.2c-18.2-19.1-28.6-18-41.1-22.2c-4.1-17.3-24.4-36-31.8-43.7c-2.2-2.8-10.7-2.1,4.9-4.7c19.6,7.2,38,13.5,60.5,5.5
			C1227.5-225.1,1232.3-205.3,1222.3-180.2z"/>
		<path id="path5482" sodipodi:nodetypes="cccccc" inkscape:connector-curvature="0" stroke="#000000" stroke-miterlimit="10" d="
			M1028.3-180.2c18.2-19.1,28.6-18,41.1-22.2c4.1-17.3,24.4-36,31.8-43.7c2.2-2.8,10.7-2.1-4.9-4.7c-19.6,7.2-38,13.5-60.5,5.5
			C1023.1-225.1,1018.3-205.3,1028.3-180.2z"/>
	</g>
	<g id="g10553" transform="translate(-997.9595,-405)">
	</g>
	<circle id="circle10559" stroke="#000000" stroke-miterlimit="10" cx="625" cy="150" r="30"/>
</g>
<g id="g5432" transform="translate(750,55)">
	<g id="g10577" transform="matrix(1.0228935,0,0,1.0749569,-775.75517,399.52291)">
		<path id="path10579" sodipodi:nodetypes="cccccc" inkscape:connector-curvature="0" stroke="#000000" stroke-miterlimit="10" d="
			M1201.5-163.8c-12.3-22.9-22.8-24.5-33.7-31.6c0.7-17.7-8.6-37.1-14.4-50.7c-1.4-3.2-6.2-4.7,1-4.7c17,11.8,33.6,29.1,57.6,26.9
			C1218.6-201.3,1217.9-185.6,1201.5-163.8L1201.5-163.8z"/>
		<path id="path5486" sodipodi:nodetypes="cccccc" inkscape:connector-curvature="0" stroke="#000000" stroke-miterlimit="10" d="
			M1048.6-163.8c12.3-22.9,22.8-24.5,33.7-31.6c-0.7-17.7,8.6-37.1,14.4-50.7c1.4-3.2,6.2-4.7-1-4.7c-17,11.8-33.6,29.1-57.6,26.9
			C1031.4-201.3,1032.2-185.6,1048.6-163.8L1048.6-163.8z"/>
	</g>
	<g id="g10583" transform="translate(-1247.9595,-420)">
	</g>
	<circle id="circle10589" stroke="#000000" stroke-miterlimit="10" cx="375" cy="135" r="30"/>
</g>
<g id="g5443" transform="translate(750,70)">
	<g id="g10607" transform="matrix(1.0228935,0,0,1.0749569,-1025.7552,384.52291)">
		<path id="path10609" sodipodi:nodetypes="ccsccc" inkscape:connector-curvature="0" stroke="#000000" stroke-miterlimit="10" d="
			M1174.2-155.4c-5.7-25.2-15.3-29.2-23.9-38.8c5.5-17,1.3-41.2-0.6-55.9c-0.5-3.5,4.1,1.9,3.3-1.5c6.3,19.4,12,43.5,35.7,47.2
			C1189-180.8,1196-172.5,1174.2-155.4L1174.2-155.4z"/>
		<path id="path10611" sodipodi:nodetypes="ccsccc" inkscape:connector-curvature="0" stroke="#000000" stroke-miterlimit="10" d="
			M1075.8-155.6c5.7-25.2,15.3-29.2,23.9-38.8c-5.7-17.6-2.5-41-0.2-56.1c0.4-2.9-3.1,1.6-2.4-1.3c-6.3,19.6-12,43.5-35.7,47.2
			C1061-181,1054-172.7,1075.8-155.6z"/>
	</g>
	<g id="g10613" transform="translate(-1497.9595,-435)">
	</g>
	<circle id="circle10619" stroke="#000000" stroke-miterlimit="10" cx="125" cy="120" r="30"/>
</g>
<g id="g5494" transform="translate(500,70)">
	<g id="g5496" transform="matrix(1.0228935,0,0,1.0749569,-1025.7552,384.52291)">
		<path id="path5498" sodipodi:nodetypes="ccsccc" inkscape:connector-curvature="0" stroke="#000000" stroke-miterlimit="10" d="
			M1169.3-146.1c-5.7-25.2-10.4-33.9-19.1-43.4c5.5-17,1.3-45.9-0.6-60.5c-0.5-3.5,4.1,1.9,3.3-1.5c6.3,19.4,12,48.2,35.7,51.9
			C1189-176.2,1191.1-163.2,1169.3-146.1z"/>
		<path id="path5500" sodipodi:nodetypes="ccsccc" inkscape:connector-curvature="0" stroke="#000000" stroke-miterlimit="10" d="
			M1080.7-146.3c5.7-25.2,10.4-33.9,19.1-43.4c-5.7-17.6-2.5-45.6-0.2-60.7c0.4-2.9-3.1,1.6-2.4-1.3c-6.3,14.9-12,48.2-35.7,51.9
			C1061-176.4,1058.9-163.4,1080.7-146.3z"/>
	</g>
	<g id="g5502" transform="translate(-1497.9595,-435)">
	</g>
	<circle id="circle5504" stroke="#000000" stroke-miterlimit="10" cx="125" cy="120" r="30"/>
</g>
<g id="g5512" transform="translate(250,70)">
	<g id="g5514" transform="matrix(1.0228935,0,0,1.0749569,-1025.7552,384.52291)">
		<path id="path5538" sodipodi:nodetypes="ccsccc" inkscape:connector-curvature="0" d="M1090.7-144.3c0.1-22.7,0.7-35.8,9.3-45.3
			c-5.5-17-1.3-45.9,0.6-60.5c0.5-3.5-4.1,1.9-3.3-1.5c-6.5,19.4-16.1,52.8-30.8,56.5C1066.1-171.5,1068.9-161.3,1090.7-144.3
			L1090.7-144.3z"/>
		<path id="path5516" sodipodi:nodetypes="ccsccc" inkscape:connector-curvature="0" d="M1159.5-144.3c-0.3-27.4-0.7-35.8-9.3-45.3
			c5.5-17,1.3-45.9-0.6-60.5c-0.5-3.5,4.1,1.9,3.3-1.5c6.3,19.4,16.1,52.8,30.8,56.5C1184.1-171.5,1181.3-161.3,1159.5-144.3
			L1159.5-144.3z"/>
	</g>
	<g id="g5520" transform="translate(-1497.9595,-435)">
	</g>
	<circle id="circle5522" cx="125" cy="120" r="30"/>
</g>
<g id="g5550" transform="translate(750,405)">
	<path id="path5552" sodipodi:nodetypes="cccccc" inkscape:connector-curvature="0" stroke="#000000" stroke-miterlimit="10" d="
		M2973.1-315.1c-13.1,20.1-23.6,61.6-28.1,75.2c-20.8,6.5-31.7,18-45.1,32.3c1.1-3.1,3.9-9.2,5.1-12.3c6.7-18.2,11-33.7,5.3-53.9
		C2930.1-288.5,2950-310,2973.1-315.1z"/>
	<path id="path5554" sodipodi:nodetypes="cccccc" inkscape:connector-curvature="0" stroke="#000000" stroke-miterlimit="10" d="
		M2775.4-314.8c18.6,24.8,24,61.6,28.6,75.2c21.2,6.5,32.6,18,46.2,32.3c-2.2-6-4.1-6.6-6.2-12.6c-5.3-15.5-9.4-36.5-4.4-53.6
		C2819.3-288.2,2799-310,2775.4-314.8z"/>
	<g id="g5556" transform="translate(2.0405,-730)">
	</g>
	<circle id="circle5558" stroke="#000000" stroke-miterlimit="10" cx="2875" cy="-215" r="30"/>
</g>
<g id="g5574" transform="translate(992.0405,-325)">
</g>
<path id="path5632" sodipodi:nodetypes="cccccc" inkscape:connector-curvature="0" stroke="#000000" stroke-miterlimit="10" d="
	M4198.1,65c-13.1,25-8.6,62.3-13.1,77.1c-20.8,7.1-21.7,39.7-35.1,55.2c1.1-3.4,1.9-10,3.1-13.5c6.7-19.9-2-51.8-7.7-73.9
	C4160,95,4180,80,4198.1,65z"/>
<g id="g5586" transform="translate(1250,405)">
	<g id="g5592" transform="translate(2.0405,-730)">
	</g>
	<circle id="circle5594" stroke="#000000" stroke-miterlimit="10" cx="2875" cy="-215" r="30"/>
</g>
<g id="g5638" transform="translate(0,70)">
	<g id="g5640" transform="matrix(1.0228935,0,0,1.0749569,-1025.7552,384.52291)">
		<path id="path5642" sodipodi:nodetypes="ccsccc" inkscape:connector-curvature="0" d="M1105.4-144.3c-4.8-22.7-4.2-35.8,4.4-45.3
			c-5.5-17-11.1-45.9-9.1-60.5c0.5-3.5-4.1,1.9-3.3-1.5c-6.5,19.4-6.5,52-16.2,56.5C1080.7-171.5,1083.5-161.3,1105.4-144.3
			L1105.4-144.3z"/>
		<path id="path5644" sodipodi:nodetypes="ccsccc" inkscape:connector-curvature="0" d="M1144.8-144.3c4.6-27.4,4.2-35.8-4.4-45.3
			c5.5-17,11.1-45.9,9.1-60.5c-0.5-3.5,4.1,1.9,3.3-1.5c6.3,19.4,6.3,51.1,16.2,56.5C1169.4-171.5,1166.6-161.3,1144.8-144.3
			L1144.8-144.3z"/>
	</g>
	<g id="g5646" transform="translate(-1497.9595,-435)">
	</g>
	<circle id="circle5648" cx="125" cy="120" r="30"/>
</g>
<g id="g4670">
	<path id="path5602" sodipodi:nodetypes="cccccc" inkscape:connector-curvature="0" stroke="#000000" stroke-miterlimit="10" d="
		M3791.9,75c13.1,25,13.6,62.3,18.1,77.1c20.8,7.1,26.7,29.7,40.1,45.2c-1.1-3.4-1.9-10-3.1-13.5c-6.7-19.9-8-36.8-2.3-58.9
		C3824.9,109.1,3815,90,3791.9,75z"/>
	<circle id="circle5576" stroke="#000000" stroke-miterlimit="10" cx="3875" cy="190" r="30"/>
	<path id="path5667" sodipodi:nodetypes="cccccc" inkscape:connector-curvature="0" stroke="#000000" stroke-miterlimit="10" d="
		M3958.1,75c-13.1,25-13.6,62.3-18.1,77.1c-20.8,7.1-26.7,29.7-40.1,45.2c1.1-3.4,1.9-10,3.1-13.5c6.7-19.9,8-36.8,2.3-58.9
		C3925.1,109.1,3935,90,3958.1,75z"/>
</g>
<path id="path5677" sodipodi:nodetypes="cccccc" inkscape:connector-curvature="0" stroke="#000000" stroke-miterlimit="10" d="
	M4438.1,65c-3.1,25-3.1,77.1-3.1,77.1c-20.8,7.1-21.7,39.7-35.1,55.2c1.1-3.4,1.9-10,3.1-13.5c6.7-19.9-2-46.8-7.7-68.9
	C4410,100,4420,80,4438.1,65z"/>
<g id="g5681" transform="translate(1500,405)">
	<g id="g5683" transform="translate(2.0405,-730)">
	</g>
	<circle id="circle5685" stroke="#000000" stroke-miterlimit="10" cx="2875" cy="-215" r="30"/>
</g>
<path id="path5701" sodipodi:nodetypes="cccc" inkscape:connector-curvature="0" stroke="#000000" stroke-miterlimit="10" d="
	M2132.4,164.3c-2.4-9.9,5.8-17.8,13.5-17.3c4.2,6.9,2.1,18.5-7.5,21L2132.4,164.3z"/>
<path id="path5703" sodipodi:nodetypes="cccc" inkscape:connector-curvature="0" stroke="#000000" stroke-miterlimit="10" d="
	M2117.6,164.3c2.4-9.9-5.8-17.8-13.5-17.3c-4.2,6.9-2.1,18.5,7.5,21L2117.6,164.3z"/>
<path id="path5709" sodipodi:nodetypes="cccc" inkscape:connector-curvature="0" stroke="#000000" stroke-miterlimit="10" d="
	M2382.4,162.3c-2.4-9.9,5.8-17.8,13.5-17.3c4.2,6.9,2.1,18.5-7.5,21L2382.4,162.3z"/>
<path id="path5711" sodipodi:nodetypes="cccc" inkscape:connector-curvature="0" stroke="#000000" stroke-miterlimit="10" d="
	M2367.6,162.3c2.4-9.9-5.8-17.8-13.5-17.3c-4.2,6.9-2.1,18.5,7.5,21L2367.6,162.3z"/>
<path id="path5717" sodipodi:nodetypes="cccc" inkscape:connector-curvature="0" stroke="#000000" stroke-miterlimit="10" d="
	M2632.4,162.3c-2.4-9.9,5.8-17.8,13.5-17.3c4.2,6.9,2.1,18.5-7.5,21L2632.4,162.3z"/>
<path id="path5719" sodipodi:nodetypes="cccc" inkscape:connector-curvature="0" stroke="#000000" stroke-miterlimit="10" d="
	M2617.6,163.3c2.4-9.9-5.8-17.8-13.5-17.3c-4.2,6.9-2.1,18.5,7.5,21L2617.6,163.3z"/>
<path id="path5725" sodipodi:nodetypes="cccc" inkscape:connector-curvature="0" stroke="#000000" stroke-miterlimit="10" d="
	M2882.4,161.3c-2.4-9.9,5.8-17.8,13.5-17.3c4.2,6.9,2.1,18.5-7.5,21L2882.4,161.3z"/>
<path id="path5727" sodipodi:nodetypes="cccc" inkscape:connector-curvature="0" stroke="#000000" stroke-miterlimit="10" d="
	M2867.6,161.3c2.4-9.9-5.8-17.8-13.5-17.3c-4.2,6.9-2.1,18.5,7.5,21L2867.6,161.3z"/>
<path id="path5733" sodipodi:nodetypes="cccc" inkscape:connector-curvature="0" stroke="#000000" stroke-miterlimit="10" d="
	M3132.4,161.3c-2.4-9.9,5.8-17.8,13.5-17.3c4.2,6.9,2.1,18.5-7.5,21L3132.4,161.3z"/>
<path id="path5735" sodipodi:nodetypes="cccc" inkscape:connector-curvature="0" stroke="#000000" stroke-miterlimit="10" d="
	M3117.6,161.3c2.4-9.9-5.8-17.8-13.5-17.3c-4.2,6.9-2.1,18.5,7.5,21L3117.6,161.3z"/>
<path id="path5741" sodipodi:nodetypes="cccc" inkscape:connector-curvature="0" stroke="#000000" stroke-miterlimit="10" d="
	M3382.4,161.3c-2.4-9.9,5.8-17.8,13.5-17.3c4.2,6.9,2.1,18.5-7.5,21L3382.4,161.3z"/>
<path id="path5743" sodipodi:nodetypes="cccc" inkscape:connector-curvature="0" stroke="#000000" stroke-miterlimit="10" d="
	M3367.6,161.3c2.4-9.9-5.8-17.8-13.5-17.3c-4.2,6.9-2.1,18.5,7.5,21L3367.6,161.3z"/>
<path id="path5749" sodipodi:nodetypes="cccc" inkscape:connector-curvature="0" stroke="#000000" stroke-miterlimit="10" d="
	M3632.4,161.3c-2.4-9.9,5.8-17.8,13.5-17.3c4.2,6.9,2.1,18.5-7.5,21L3632.4,161.3z"/>
<path id="path5751" sodipodi:nodetypes="cccc" inkscape:connector-curvature="0" stroke="#000000" stroke-miterlimit="10" d="
	M3617.6,161.3c2.4-9.9-5.8-17.8-13.5-17.3c-4.2,6.9-2.1,18.5,7.5,21L3617.6,161.3z"/>
<path id="path5757" sodipodi:nodetypes="cccc" inkscape:connector-curvature="0" stroke="#000000" stroke-miterlimit="10" d="
	M3882.4,161.3c-2.4-9.9,5.8-17.8,13.5-17.3c4.2,6.9,2.1,18.5-7.5,21L3882.4,161.3z"/>
<path id="path5759" sodipodi:nodetypes="cccc" inkscape:connector-curvature="0" stroke="#000000" stroke-miterlimit="10" d="
	M3867.6,161.3c2.4-9.9-5.8-17.8-13.5-17.3c-4.2,6.9-2.1,18.5,7.5,21L3867.6,161.3z"/>
<circle id="circle5767" stroke="#000000" stroke-miterlimit="10" cx="4375" cy="190" r="30"/>
<path id="path5769" sodipodi:nodetypes="cccc" inkscape:connector-curvature="0" stroke="#000000" stroke-miterlimit="10" d="
	M4132.4,161.3c-2.4-9.9,5.8-17.8,13.5-17.3c4.2,6.9,2.1,18.5-7.5,21L4132.4,161.3z"/>
<path id="path5771" sodipodi:nodetypes="cccc" inkscape:connector-curvature="0" stroke="#000000" stroke-miterlimit="10" d="
	M4117.6,161.3c2.4-9.9-5.8-17.8-13.5-17.3c-4.2,6.9-2.1,18.5,7.5,21L4117.6,161.3z"/>
<path id="path5777" sodipodi:nodetypes="cccc" inkscape:connector-curvature="0" stroke="#000000" stroke-miterlimit="10" d="
	M4382.4,161.3c-2.4-9.9,5.8-17.8,13.5-17.3c4.2,6.9,2.1,18.5-7.5,21L4382.4,161.3z"/>
<path id="path5779" sodipodi:nodetypes="cccc" inkscape:connector-curvature="0" stroke="#000000" stroke-miterlimit="10" d="
	M4367.6,161.3c2.4-9.9-5.8-17.8-13.5-17.3c-4.2,6.9-2.1,18.5,7.5,21L4367.6,161.3z"/>
<path id="path5789" sodipodi:nodetypes="cccc" inkscape:connector-curvature="0" stroke="#000000" stroke-miterlimit="10" d="
	M882.4,166.3c-2.4-9.9,5.8-17.8,13.5-17.3c4.2,6.9,2.1,18.5-7.5,21L882.4,166.3z"/>
<path id="path5791" sodipodi:nodetypes="cccc" inkscape:connector-curvature="0" stroke="#000000" stroke-miterlimit="10" d="
	M867.6,166.3c2.4-9.9-5.8-17.8-13.5-17.3c-4.2,6.9-2.1,18.5,7.5,21L867.6,166.3z"/>
<path id="path5797" sodipodi:nodetypes="cccc" inkscape:connector-curvature="0" stroke="#000000" stroke-miterlimit="10" d="
	M1132.4,166.3c-2.4-9.9,5.8-17.8,13.5-17.3c4.2,6.9,2.1,18.5-7.5,21L1132.4,166.3z"/>
<path id="path5799" sodipodi:nodetypes="cccc" inkscape:connector-curvature="0" stroke="#000000" stroke-miterlimit="10" d="
	M1117.6,166.3c2.4-9.9-5.8-17.8-13.5-17.3c-4.2,6.9-2.1,18.5,7.5,21L1117.6,166.3z"/>
<path id="path5805" sodipodi:nodetypes="cccc" inkscape:connector-curvature="0" stroke="#000000" stroke-miterlimit="10" d="
	M1382.4,165.3c-2.4-9.9,5.8-17.8,13.5-17.3c4.2,6.9,2.1,18.5-7.5,21L1382.4,165.3z"/>
<path id="path5807" sodipodi:nodetypes="cccc" inkscape:connector-curvature="0" stroke="#000000" stroke-miterlimit="10" d="
	M1367.6,165.3c2.4-9.9-5.8-17.8-13.5-17.3c-4.2,6.9-2.1,18.5,7.5,21L1367.6,165.3z"/>
<path id="path5813" sodipodi:nodetypes="cccc" inkscape:connector-curvature="0" stroke="#000000" stroke-miterlimit="10" d="
	M1632.4,164.3c-2.4-9.9,5.8-17.8,13.5-17.3c4.2,6.9,2.1,18.5-7.5,21L1632.4,164.3z"/>
<path id="path5815" sodipodi:nodetypes="cccc" inkscape:connector-curvature="0" stroke="#000000" stroke-miterlimit="10" d="
	M1617.6,164.3c2.4-9.9-5.8-17.8-13.5-17.3c-4.2,6.9-2.1,18.5,7.5,21L1617.6,164.3z"/>
<path id="path5821" sodipodi:nodetypes="cccc" inkscape:connector-curvature="0" stroke="#000000" stroke-miterlimit="10" d="
	M1882.4,164.3c-2.4-9.9,5.8-17.8,13.5-17.3c4.2,6.9,2.1,18.5-7.5,21L1882.4,164.3z"/>
<path id="path5823" sodipodi:nodetypes="cccc" inkscape:connector-curvature="0" stroke="#000000" stroke-miterlimit="10" d="
	M1867.6,164.3c2.4-9.9-5.8-17.8-13.5-17.3c-4.2,6.9-2.1,18.5,7.5,21L1867.6,164.3z"/>
<path id="path5845" sodipodi:nodetypes="cccc" inkscape:connector-curvature="0" stroke="#000000" stroke-miterlimit="10" d="
	M132.4,168.3c-2.4-9.9,5.8-17.8,13.5-17.3c4.2,6.9,2.1,18.5-7.5,21L132.4,168.3z"/>
<path id="path5847" sodipodi:nodetypes="cccc" inkscape:connector-curvature="0" stroke="#000000" stroke-miterlimit="10" d="
	M117.6,168.3c2.4-9.9-5.8-17.8-13.5-17.3c-4.2,6.9-2.1,18.5,7.5,21L117.6,168.3z"/>
<path id="path5853" sodipodi:nodetypes="cccc" inkscape:connector-curvature="0" d="M382.4,167.3c-2.4-9.9,5.8-17.8,13.5-17.3
	c4.2,6.9,2.1,18.5-7.5,21L382.4,167.3z"/>
<path id="path5855" sodipodi:nodetypes="cccc" inkscape:connector-curvature="0" d="M367.6,167.3c2.4-9.9-5.8-17.8-13.5-17.3
	c-4.2,6.9-2.1,18.5,7.5,21L367.6,167.3z"/>
<path id="path5861" sodipodi:nodetypes="cccc" inkscape:connector-curvature="0" stroke="#000000" stroke-miterlimit="10" d="
	M632.4,166.3c-2.4-9.9,5.8-17.8,13.5-17.3c4.2,6.9,2.1,18.5-7.5,21L632.4,166.3z"/>
<path id="path5863" sodipodi:nodetypes="cccc" inkscape:connector-curvature="0" d="M617.6,166.3c2.4-9.9-5.8-17.8-13.5-17.3
	c-4.2,6.9-2.1,18.5,7.5,21L617.6,166.3z"/>
<path id="path5869" sodipodi:nodetypes="cccccc" inkscape:connector-curvature="0" stroke="#000000" stroke-miterlimit="10" d="
	M4310.3,65c3.1,25,3.1,77.1,3.1,77.1c20.8,7.1,21.7,39.7,35.1,55.2c-1.1-3.4-1.9-10-3.1-13.5c-6.7-19.9,2-46.8,7.7-68.9
	C4338.4,100,4328.4,80,4310.3,65z"/>
</svg>
